<svg id="Capa_1" enable-background="new 0 0 512 512" height="512" viewBox="0 0 512 512" width="512" xmlns="http://www.w3.org/2000/svg"><g><g><g><path d="m482 468h-211v-119.328c0-8.284-6.716-15-15-15s-15 6.716-15 15v119.328h-211c-8.284 0-15 6.716-15 15s6.716 15 15 15h452c8.284 0 15-6.716 15-15s-6.716-15-15-15z" fill="#283758"/><path d="m482 468h-211v-119.328c0-8.284-6.716-15-15-15v164.328h226c8.284 0 15-6.716 15-15s-6.716-15-15-15z" fill="#182135"/></g><g><circle cx="30" cy="482" fill="#f4d844" r="30"/><g><circle cx="256" cy="482" fill="#f4d844" r="30"/><path d="m256 452v60c16.569 0 30-13.431 30-30s-13.431-30-30-30z" fill="#ecbd2c"/></g><circle cx="482" cy="482" fill="#ecbd2c" r="30"/></g></g><g><g><g><path d="m428.634 363.665h-345.268c-16.569 0-30-13.431-30-30v-61.222c0-16.569 13.431-30 30-30h345.269c16.569 0 30 13.431 30 30v61.222c-.001 16.568-13.432 30-30.001 30z" fill="#425796"/><path d="m428.634 242.442h-172.634v121.222h172.634c16.569 0 30-13.431 30-30v-61.222c0-16.568-13.431-30-30-30z" fill="#283758"/></g><g fill="#fbf4f4"><path d="m223.819 319.41c-6.255 0-12.015-4.05-14.109-9.947-2.095-5.896-.26-12.671 4.6-16.644 4.859-3.972 11.833-4.478 17.221-1.27 5.374 3.201 8.232 9.661 6.999 15.79-1.394 6.932-7.631 12.071-14.711 12.071z"/><path d="m163.83 319.41c-6.18 0-11.847-3.93-14.027-9.704-2.18-5.777-.514-12.422 4.085-16.531 4.872-4.354 12.256-4.921 17.799-1.53 5.395 3.3 8.179 9.923 6.762 16.085-1.547 6.735-7.687 11.68-14.619 11.68z"/><path d="m103.819 319.41c-6.535 0-12.436-4.4-14.34-10.641-1.701-5.574.074-11.72 4.409-15.594 4.872-4.354 12.256-4.921 17.799-1.53 4.999 3.058 7.797 8.987 6.996 14.788-1.012 7.34-7.445 12.977-14.864 12.977z"/></g></g><g><g><path d="m428.634 242.438h-345.268c-16.569 0-30-13.432-30-30v-61.222c0-16.568 13.431-30 30-30h345.269c16.569 0 30 13.432 30 30v61.222c-.001 16.568-13.432 30-30.001 30z" fill="#283758"/><path d="m428.634 121.215h-172.634v121.222h172.634c16.569 0 30-13.432 30-30v-61.222c0-16.568-13.431-30-30-30z" fill="#182135"/></g><g fill="#e2e9ee"><path d="m223.819 198.18c-6.258 0-12.013-4.043-14.109-9.942-2.095-5.895-.261-12.675 4.6-16.648 4.858-3.971 11.833-4.479 17.221-1.27 5.372 3.199 8.241 9.672 6.999 15.801-1.404 6.93-7.628 12.059-14.711 12.059z"/><path d="m163.83 198.189c-6.288 0-11.984-4.061-14.119-9.952-2.128-5.873-.237-12.696 4.598-16.648 4.858-3.971 11.833-4.479 17.221-1.27 5.372 3.199 8.241 9.672 6.999 15.801-1.399 6.913-7.624 12.069-14.699 12.069z"/><path d="m103.819 198.18c-6.256 0-12.013-4.045-14.109-9.942-2.092-5.885-.267-12.687 4.6-16.648 4.869-3.962 11.825-4.484 17.221-1.27 5.372 3.199 8.241 9.673 6.999 15.801-1.403 6.928-7.63 12.059-14.711 12.059z"/></g></g><g><g><path d="m428.634 121.222h-345.268c-16.569 0-30-13.431-30-30v-61.222c0-16.569 13.431-30 30-30h345.269c16.569 0 30 13.432 30 30v61.222c-.001 16.569-13.432 30-30.001 30z" fill="#425796"/><path d="m428.634 0h-172.634v121.222h172.634c16.569 0 30-13.431 30-30v-61.222c0-16.569-13.431-30-30-30z" fill="#283758"/></g><g fill="#fbf4f4"><path d="m223.819 76.97c-6.252 0-12.016-4.053-14.109-9.946s-.265-12.683 4.6-16.654c4.869-3.974 11.829-4.472 17.221-1.26 5.377 3.202 8.233 9.656 6.999 15.79-1.393 6.928-7.633 12.07-14.711 12.07z"/><path d="m163.83 76.97c-6.286 0-11.985-4.053-14.119-9.946-2.126-5.87-.241-12.704 4.598-16.654 4.869-3.974 11.829-4.472 17.221-1.26 5.376 3.202 8.233 9.658 6.999 15.79-1.391 6.92-7.626 12.07-14.699 12.07z"/><path d="m103.819 76.97c-6.243 0-12.03-4.052-14.109-9.947-2.08-5.899-.272-12.676 4.6-16.652 4.869-3.974 11.829-4.472 17.221-1.26 5.376 3.202 8.233 9.657 6.999 15.79-1.394 6.927-7.633 12.069-14.711 12.069z"/></g></g><path d="m402.14 318h-92.236c-8.284 0-15-6.716-15-15s6.716-15 15-15h92.236c8.284 0 15 6.716 15 15s-6.716 15-15 15z" fill="#f4d844"/><path d="m402.14 78h-92.236c-8.284 0-15-6.716-15-15s6.716-15 15-15h92.236c8.284 0 15 6.716 15 15s-6.716 15-15 15z" fill="#f4d844"/><path d="m402.14 198h-92.236c-8.284 0-15-6.716-15-15s6.716-15 15-15h92.236c8.284 0 15 6.716 15 15s-6.716 15-15 15z" fill="#ecbd2c"/></g></g></svg>